<?xml version="1.0" encoding="utf-8"?>
<!-- Generator: Adobe Illustrator 21.1.0, SVG Export Plug-In . SVG Version: 6.00 Build 0)  -->
<svg version="1.1" id="Capa_1" xmlns="http://www.w3.org/2000/svg" xmlns:xlink="http://www.w3.org/1999/xlink" x="0px" y="0px"
	 viewBox="0 0 200 200" style="enable-background:new 0 0 200 200;" xml:space="preserve">
<style type="text/css">
	.st0{fill:#00CC6D;}
</style>
<g>
	<path class="st0" d="M192.8,47.3h-8.5v-8c0-1.8-1.3-3.3-3.1-3.5L132,30c-11-1.3-22.1,0.5-32,5.3c-10-4.8-21-6.6-32-5.3l-49.1,5.8
		c-1.8,0.2-3.1,1.7-3.1,3.5v8H7.2c-2,0-3.5,1.6-3.5,3.5v116c0,2,1.6,3.5,3.5,3.5h185.6c2,0,3.5-1.6,3.5-3.5v-116
		C196.3,48.9,194.7,47.3,192.8,47.3z M131.2,37.1l46,5.4v105.4l-45.2-5.3c-9.7-1.1-19.5,0.2-28.5,3.8V41.5
		C112.2,37.5,121.7,35.9,131.2,37.1z M68.8,37.1c9.5-1.1,19,0.4,27.7,4.5v104.8c-6.9-2.8-14.2-4.2-21.6-4.2c-2.3,0-4.6,0.1-6.9,0.4
		l-45.2,5.3V42.5L68.8,37.1z M189.2,163.3H10.8V54.4h4.9v97.4c0,1,0.4,2,1.2,2.6c0.8,0.7,1.8,1,2.8,0.9l49.1-5.8
		c10.2-1.2,20.4,0.7,29.6,5.4c1,0.5,2.2,0.5,3.3,0c9.1-4.7,19.4-6.6,29.6-5.4l49.1,5.8c0.1,0,0.3,0,0.4,0c0.9,0,1.7-0.3,2.4-0.9
		c0.8-0.7,1.2-1.6,1.2-2.6V54.4h4.9L189.2,163.3L189.2,163.3z"/>
	<path class="st0" d="M111.7,57c6.4-1.7,12.9-2.2,19.4-1.4l36.9,4.3c0.1,0,0.3,0,0.4,0c1.8,0,3.3-1.3,3.5-3.1
		c0.2-1.9-1.2-3.7-3.1-3.9L132,48.5c-7.4-0.9-14.9-0.3-22.1,1.6c-1.9,0.5-3,2.5-2.5,4.3C107.9,56.4,109.8,57.5,111.7,57z"/>
	<path class="st0" d="M31.4,59.9c0.1,0,0.3,0,0.4,0l36.9-4.3c6.5-0.8,13.1-0.3,19.4,1.4c1.9,0.5,3.8-0.6,4.4-2.5
		c0.5-1.9-0.6-3.8-2.5-4.4c-7.2-1.9-14.7-2.5-22.1-1.6L31,52.9c-1.9,0.2-3.3,2-3.1,3.9C28.1,58.6,29.6,59.9,31.4,59.9z"/>
	<path class="st0" d="M111.7,73.3c6.4-1.7,12.9-2.2,19.4-1.4l36.9,4.3c0.1,0,0.3,0,0.4,0c1.8,0,3.3-1.3,3.5-3.1
		c0.2-1.9-1.2-3.7-3.1-3.9L132,64.8c-7.4-0.9-14.9-0.3-22.1,1.6c-1.9,0.5-3,2.5-2.5,4.3C107.9,72.7,109.8,73.8,111.7,73.3z"/>
	<path class="st0" d="M31.4,76.2c0.1,0,0.3,0,0.4,0l36.9-4.3c6.5-0.8,13.1-0.3,19.4,1.4c1.9,0.5,3.8-0.6,4.4-2.5
		c0.5-1.9-0.6-3.8-2.5-4.4c-7.2-1.9-14.7-2.5-22.1-1.6L31,69.1c-1.9,0.2-3.3,2-3.1,3.9C28.1,74.9,29.6,76.2,31.4,76.2z"/>
	<path class="st0" d="M111.7,89.5c6.4-1.7,12.9-2.2,19.4-1.4l36.9,4.3c0.1,0,0.3,0,0.4,0c1.8,0,3.3-1.3,3.5-3.1
		c0.2-1.9-1.2-3.7-3.1-3.9L132,81c-7.4-0.9-14.9-0.3-22.1,1.6c-1.9,0.5-3,2.5-2.5,4.3C107.9,88.9,109.8,90,111.7,89.5z"/>
	<path class="st0" d="M31.4,92.4c0.1,0,0.3,0,0.4,0l36.9-4.3c6.5-0.8,13.1-0.3,19.4,1.4C90,90,92,88.9,92.5,87
		c0.5-1.9-0.6-3.8-2.5-4.4c-7.2-1.9-14.7-2.5-22.1-1.6L31,85.4c-1.9,0.2-3.3,2-3.1,3.9C28.1,91.1,29.6,92.4,31.4,92.4z"/>
	<path class="st0" d="M111.7,105.8c6.4-1.7,12.9-2.2,19.4-1.4l36.9,4.3c0.1,0,0.3,0,0.4,0c1.8,0,3.3-1.3,3.5-3.1
		c0.2-1.9-1.2-3.7-3.1-3.9L132,97.3c-7.4-0.9-14.9-0.3-22.1,1.6c-1.9,0.5-3,2.5-2.5,4.3S109.8,106.3,111.7,105.8z"/>
	<path class="st0" d="M31.4,108.7c0.1,0,0.3,0,0.4,0l36.9-4.3c6.5-0.8,13.1-0.3,19.4,1.4c1.9,0.5,3.8-0.6,4.4-2.5
		c0.5-1.9-0.6-3.8-2.5-4.4c-7.2-1.9-14.7-2.5-22.1-1.6L31,101.6c-1.9,0.2-3.3,2-3.1,3.9C28.1,107.4,29.6,108.7,31.4,108.7z"/>
	<path class="st0" d="M168.9,117.9l-36.9-4.3c-7.4-0.9-14.9-0.3-22.1,1.6c-1.9,0.5-3,2.5-2.5,4.3c0.5,1.9,2.5,3,4.3,2.5
		c6.4-1.7,12.9-2.2,19.4-1.4l36.9,4.3c0.1,0,0.3,0,0.4,0c1.8,0,3.3-1.3,3.5-3.1C172.2,119.9,170.8,118.1,168.9,117.9z"/>
	<path class="st0" d="M31.4,125c0.1,0,0.3,0,0.4,0l36.9-4.3c6.5-0.8,13.1-0.3,19.4,1.4c1.9,0.5,3.8-0.6,4.4-2.5
		c0.5-1.9-0.6-3.8-2.5-4.4c-7.2-1.9-14.7-2.5-22.1-1.6L31,117.9c-1.9,0.2-3.3,2-3.1,3.9C28.1,123.6,29.6,125,31.4,125z"/>
</g>
</svg>
