<?xml version="1.0" encoding="utf-8"?>
<!-- Generator: Adobe Illustrator 21.1.0, SVG Export Plug-In . SVG Version: 6.00 Build 0)  -->
<svg version="1.1" id="Capa_1" xmlns="http://www.w3.org/2000/svg" xmlns:xlink="http://www.w3.org/1999/xlink" x="0px" y="0px"
	 viewBox="0 0 200 200" style="enable-background:new 0 0 200 200;" xml:space="preserve">
<style type="text/css">
	.st0{fill:#DEFF22;}
	.st1{fill:#3EBAFF;}
</style>
<g>
	<g>
		<path class="st0" d="M175.9,76.1c5.4-6.5,8.4-14.4,8.4-22.5c0-20.8-19-37.7-42.3-37.7c-9.9,0-19.3,3-26.8,8.6
			c-6.5-3.5-13.9-5.3-21.7-5.3c-23.3,0-42.3,16.9-42.3,37.7c0,1.3,0.1,2.6,0.2,3.9c-15.6,5.8-26.1,19.4-26.1,34.8
			c0,20.4,18.2,37,40.9,37.7c8.1,11.1,22,17.8,37,17.8c12.3,0,23.8-4.5,32.2-12.4c3.2,0.7,6.5,1,9.9,1c23.3,0,42.3-16.9,42.3-37.7
			C187.5,92.4,183.3,83.1,175.9,76.1z M145.2,127.9c-3.4,0-6.7-0.5-10-1.5c-2.2-0.7-4.6,0-6.2,1.8c-6.2,7-15.6,11.6-25.8,11
			c-31.8-1.6-31.6-24-31.6-28.9c0-3.9,0.5-6.3,0.5-6.3c0.7-2.8-3.6-3.8-4.3-1c0.5-1.8-2.7,7.8-0.8,18.3
			c-16.5-0.2-29.9-11.7-29.9-25.8c0-11.6,9.2-21.8,22.5-24.9c1.6-0.4,3-1.4,3.8-2.8c0.8-1.4,1-3.1,0.6-4.7c-0.6-2.2-1-4.3-1-6.4
			C63.1,42.6,76.7,31,93.5,31c6.9,0,13.4,1.9,18.8,5.6c2.3,1.5,5.3,1.3,7.4-0.5c5.8-5.4,13.7-8.3,22.3-8.3
			c16.8,0,30.4,11.6,30.4,25.8c0,7-3.3,13.5-9.2,18.5c0,0-9.8-1.6-15.1-1c-3.7,0.4-3.3,4.2-0.8,4.5c0,0,2.3,0.3,5.7,1.3
			c3.1,0.9,7.1,2.5,10.6,4.7c0,0,0.1,0.1,0.1,0.1c7.6,5,11.9,12.4,11.9,20.4C175.6,116.3,161.9,127.9,145.2,127.9z"/>
		<path class="st0" d="M43.5,135.5c-9.3,0-16.9,7.6-16.9,16.9c0,9.3,7.6,16.9,16.9,16.9c9.3,0,16.9-7.6,16.9-16.9
			C60.4,143.1,52.8,135.5,43.5,135.5z M43.5,161.4c-4.9,0-9-4-9-9c0-4.9,4-9,9-9c4.9,0,9,4,9,9C52.5,157.4,48.4,161.4,43.5,161.4z"
			/>
		<path class="st0" d="M15.7,164.7c-6.4,0-11.6,5.2-11.6,11.6c0,6.4,5.2,11.6,11.6,11.6c6.4,0,11.6-5.2,11.6-11.6
			C27.3,169.9,22.1,164.7,15.7,164.7z M15.7,179.9c-2,0-3.7-1.6-3.7-3.7s1.6-3.7,3.7-3.7s3.7,1.6,3.7,3.7S17.7,179.9,15.7,179.9z"/>
		<path class="st0" d="M98.3,37.1c-8-0.7-24,2.3-27.2,18.8c-0.4,2.2,1,4.2,3.1,4.7c0.3,0.1,0.5,0.1,0.8,0.1c1.9,0,3.5-1.3,3.9-3.2
			C81.5,43.9,96.8,45,97.6,45c2.2,0.2,4.1-1.4,4.3-3.6C102.1,39.2,100.5,37.3,98.3,37.1z"/>
	</g>
</g>
<g>
	<g>
		<path class="st1" d="M181.5,78.1c5.6-6.7,8.7-14.9,8.7-23.3c0-21.5-19.6-39-43.7-39c-10.2,0-19.9,3.1-27.7,8.8
			c-6.8-3.6-14.4-5.5-22.4-5.5c-24.1,0-43.7,17.5-43.7,39c0,1.3,0.1,2.7,0.3,4.1c-16.1,6-27,20.1-27,36c0,21,18.8,38.2,42.2,39
			c8.4,11.4,22.7,18.4,38.2,18.4c12.7,0,24.6-4.6,33.2-12.8c3.3,0.7,6.8,1.1,10.2,1.1c24.1,0,43.7-17.5,43.7-39
			C193.5,94.9,189.1,85.3,181.5,78.1z M149.8,131.6c-3.5,0-7-0.5-10.3-1.5c-2.3-0.7-4.8,0-6.4,1.8c-6.4,7.3-16.1,11.9-26.7,11.4
			c-32.9-1.7-32.6-24.8-32.6-29.8c0-4,0.6-6.5,0.6-6.5c0.7-2.9-3.7-3.9-4.4-1c0.6-1.8-2.8,8.1-0.8,18.9
			c-17.1-0.2-30.9-12.1-30.9-26.6c0-12,9.5-22.6,23.2-25.7c1.7-0.4,3.1-1.4,3.9-2.9s1.1-3.2,0.6-4.9c-0.7-2.2-1-4.4-1-6.6
			c0-14.7,14.1-26.7,31.4-26.7c7.1,0,13.8,2,19.5,5.8c2.4,1.6,5.5,1.4,7.6-0.6c6-5.5,14.2-8.6,23-8.6c17.3,0,31.4,12,31.4,26.7
			c0,7.2-3.4,14-9.5,19.1c0,0-10.1-1.6-15.6-1c-3.8,0.4-3.4,4.3-0.9,4.7c0,0,2.4,0.3,5.9,1.3c3.2,1,7.3,2.6,11,4.9
			c0,0,0.1,0.1,0.1,0.1c7.8,5.1,12.3,12.8,12.3,21.1C181.2,119.6,167.1,131.6,149.8,131.6z"/>
		<path class="st1" d="M44.8,139.4c-9.6,0-17.5,7.8-17.5,17.5c0,9.6,7.8,17.5,17.5,17.5c9.6,0,17.5-7.8,17.5-17.5
			C62.3,147.3,54.4,139.4,44.8,139.4z M44.8,166.1c-5.1,0-9.3-4.2-9.3-9.3c0-5.1,4.2-9.3,9.3-9.3c5.1,0,9.3,4.2,9.3,9.3
			S49.9,166.1,44.8,166.1z"/>
		<path class="st1" d="M16,169.5c-6.6,0-12,5.4-12,12c0,6.6,5.4,12,12,12c6.6,0,12-5.4,12-12C28,174.9,22.7,169.5,16,169.5z
			 M16,185.3c-2.1,0-3.8-1.7-3.8-3.8c0-2.1,1.7-3.8,3.8-3.8s3.8,1.7,3.8,3.8C19.8,183.6,18.1,185.3,16,185.3z"/>
		<path class="st1" d="M101.3,37.8c-8.3-0.7-24.8,2.3-28.1,19.4c-0.4,2.2,1,4.4,3.2,4.8c0.3,0.1,0.5,0.1,0.8,0.1
			c1.9,0,3.6-1.4,4-3.3c2.7-14,18.6-12.8,19.3-12.8c2.3,0.2,4.2-1.5,4.4-3.7C105.3,40,103.6,38,101.3,37.8z"/>
	</g>
</g>
</svg>
