<?xml version="1.0" encoding="utf-8"?>
<!-- Generator: Adobe Illustrator 21.1.0, SVG Export Plug-In . SVG Version: 6.00 Build 0)  -->
<svg version="1.1" id="Capa_1" xmlns="http://www.w3.org/2000/svg" xmlns:xlink="http://www.w3.org/1999/xlink" x="0px" y="0px"
	 viewBox="0 0 200 200" style="enable-background:new 0 0 200 200;" xml:space="preserve">
<style type="text/css">
	.st0{fill:#A09E9E;}
	.st1{fill:#99A4B0;}
</style>
<g>
	<g>
		<g>
			<path class="st0" d="M177.7,13.6H24.3c-6.5,0-11.8,5.3-11.8,11.8v97.3c0,1.6,1.3,2.9,2.9,2.9h171.1c1.6,0,2.9-1.3,2.9-2.9V25.4
				C189.5,18.9,184.2,13.6,177.7,13.6z M183.6,119.8H18.4V25.4c0-3.3,2.6-5.9,5.9-5.9h153.4c3.3,0,5.9,2.6,5.9,5.9V119.8z"/>
		</g>
	</g>
	<g>
		<g>
			<path class="st0" d="M186.6,119.8H15.4c-1.6,0-2.9,1.3-2.9,2.9v14.7c0,6.5,5.3,11.8,11.8,11.8h153.4c6.5,0,11.8-5.3,11.8-11.8
				v-14.7C189.5,121.1,188.2,119.8,186.6,119.8z M183.6,137.5c0,3.3-2.6,5.9-5.9,5.9H24.3c-3.3,0-5.9-2.6-5.9-5.9v-11.8h165.2
				L183.6,137.5L183.6,137.5z"/>
		</g>
	</g>
	<g>
		<g>
			<path class="st0" d="M109.8,131.6H92.2c-1.6,0-2.9,1.3-2.9,2.9c0,1.6,1.3,2.9,2.9,2.9h17.7c1.6,0,2.9-1.3,2.9-2.9
				C112.8,132.9,111.5,131.6,109.8,131.6z"/>
		</g>
	</g>
	<g>
		<g>
			<path class="st0" d="M174.7,25.4H27.3c-1.6,0-2.9,1.3-2.9,2.9v94.4c0,1.6,1.3,2.9,2.9,2.9h147.5c1.6,0,2.9-1.3,2.9-2.9V28.4
				C177.7,26.7,176.4,25.4,174.7,25.4z M171.8,119.8H30.2V31.3h141.6V119.8L171.8,119.8z"/>
		</g>
	</g>
	<g>
		<g>
			<path class="st0" d="M139.3,167H62.7c-4.9,0-8.8,4-8.8,8.9s4,8.9,8.8,8.9h76.7c4.9,0,8.9-4,8.9-8.9S144.2,167,139.3,167z
				 M139.3,178.8H62.7c-1.6,0-2.9-1.3-2.9-2.9c0-1.6,1.3-2.9,2.9-2.9h76.7c1.6,0,2.9,1.3,2.9,2.9C142.3,177.5,141,178.8,139.3,178.8
				z"/>
		</g>
	</g>
	<g>
		<g>
			<path class="st0" d="M133.5,167c-9.8,0-14.8-6.9-14.8-20.6c0-1.6-1.3-2.9-2.9-2.9H86.3c-1.6,0-2.9,1.3-2.9,2.9
				c0,13.7-5,20.6-14.8,20.6c-1.6,0-2.9,1.3-2.9,2.9c0,1.6,1.3,2.9,2.9,2.9h64.9c1.6,0,2.9-1.3,2.9-2.9
				C136.4,168.3,135.1,167,133.5,167z M82.9,167c3.6-4,5.8-10,6.2-17.7h23.8c0.4,7.7,2.6,13.7,6.2,17.7H82.9z"/>
		</g>
	</g>
	<g>
		<g>
			<path class="st1" d="M153.5,100.5l-7.1-7.1l4-4c0.7-0.7,1-1.8,0.8-2.8c-0.3-1-1-1.8-2-2.1l-29.5-8.9c-1-0.3-2.2,0-2.9,0.7
				c-0.8,0.8-1.1,1.9-0.7,2.9l8.8,29.5c0.3,1,1.1,1.8,2.1,2c1,0.2,2.1,0,2.8-0.8l4.2-4.2l7.1,7.1c0.6,0.6,1.3,0.9,2.1,0.9
				s1.5-0.3,2.1-0.9l8.3-8.3C154.6,103.6,154.6,101.7,153.5,100.5z M143,106.8l-6.5-6.5c-0.8-0.8-1.7-1.1-2.7-1.1
				c-1,0-2,0.4-2.7,1.1l-2.1,2.1l-5.9-19.5l19.5,5.9l-2.3,2.3c-0.6,0.6-1,1.5-1,2.4c0,0.9,0.3,1.7,1,2.4l6.8,6.8L143,106.8z"/>
		</g>
	</g>
	<g>
		<g>
			<path class="st1" d="M136.4,37.2H53.8c-1.6,0-2.9,1.3-2.9,2.9v14.8c0,1.6,1.3,2.9,2.9,2.9h82.6c1.6,0,2.9-1.3,2.9-2.9V40.2
				C139.3,38.5,138,37.2,136.4,37.2z M133.5,52H56.8v-8.8h76.7V52z"/>
		</g>
	</g>
	<g>
		<g>
			<path class="st1" d="M89.2,69.7H65.6c-1.6,0-2.9,1.3-2.9,2.9v11.8c0,1.6,1.3,2.9,2.9,2.9h23.6c1.6,0,2.9-1.3,2.9-2.9V72.6
				C92.2,71,90.8,69.7,89.2,69.7z M86.2,81.5H68.5v-5.9h17.7V81.5z"/>
		</g>
	</g>
	<g>
		<g>
			<path class="st1" d="M136.4,37.2H53.8c-1.6,0-2.9,1.3-2.9,2.9v56c0,1.6,1.3,2.9,2.9,2.9H124c0.9,0,1.8-0.4,2.4-1.2
				c0.6-0.7,0.7-1.7,0.5-2.6l-3.7-12.5l12.4,3.7c0.9,0.3,1.9,0.1,2.6-0.5c0.7-0.6,1.2-1.4,1.2-2.4V40.2
				C139.3,38.5,138,37.2,136.4,37.2z M133.5,79.9l-13.9-4.2c-1-0.3-2.2,0-2.9,0.7c-0.8,0.8-1.1,1.9-0.7,2.9l4.2,13.9H56.8V43.1h76.7
				V79.9z"/>
		</g>
	</g>
</g>
</svg>
