<?xml version="1.0" encoding="utf-8"?>
<!-- Generator: Adobe Illustrator 21.1.0, SVG Export Plug-In . SVG Version: 6.00 Build 0)  -->
<svg version="1.1" id="Layer_1" xmlns="http://www.w3.org/2000/svg" xmlns:xlink="http://www.w3.org/1999/xlink" x="0px" y="0px"
	 viewBox="0 0 200 200" style="enable-background:new 0 0 200 200;" xml:space="preserve">
<style type="text/css">
	.st0{fill:#435EFF;}
</style>
<g>
	<path class="st0" d="M186.6,65.6h-3v-36H39.6v-24h-15c-8.3,0-15,6.7-15,15v114c0,8.3,6.7,15,15,15h81v33c0,5,4,9,9,9h72
		c5,0,9-4,9-9v-108C195.6,69.6,191.5,65.6,186.6,65.6z M15.7,20.6c0-5,4-9,9-9h9v108h-9c-3.4,0-6.5,1.1-9,3V20.6z M24.7,143.5
		c-5,0-9-4-9-9c0-5,4-9,9-9h15v-90h137.9v30h-62c-5-14.2-18.6-24-33.9-24c-19.8,0-36,16.1-36,36s16.1,36,36,36
		c8.9,0,17.5-3.4,24-9.2v39.2H24.7z M105.6,74.6h-21V47.7c11.3,1.1,21.1,8.6,25.1,19.3C107.3,68.6,105.6,71.4,105.6,74.6z
		 M78.6,107.4c-15.1-1.5-27-14.3-27-29.8s11.9-28.3,27-29.8V107.4z M84.6,80.5h21v14.9c-5.1,6.7-12.7,11-21,11.9V80.5z M189.6,182.5
		c0,1.7-1.3,3-3,3h-72c-1.7,0-3-1.3-3-3v-108c0-1.7,1.3-3,3-3h72c1.7,0,3,1.3,3,3V182.5z"/>
	<path class="st0" d="M117.6,107.5h66v-30h-66V107.5z M123.6,83.5h54v18h-54V83.5z"/>
	<path class="st0" d="M165.6,179.5h18v-18h-18V179.5z M171.6,167.5h6v6h-6V167.5z"/>
	<path class="st0" d="M141.6,179.5h18v-18h-18V179.5z M147.6,167.5h6v6h-6V167.5z"/>
	<path class="st0" d="M117.6,179.5h18v-18h-18V179.5z M123.6,167.5h6v6h-6V167.5z"/>
	<path class="st0" d="M165.6,155.5h18v-18h-18V155.5z M171.6,143.5h6v6h-6V143.5z"/>
	<path class="st0" d="M141.6,155.5h18v-18h-18V155.5z M147.6,143.5h6v6h-6V143.5z"/>
	<path class="st0" d="M117.6,155.5h18v-18h-18V155.5z M123.6,143.5h6v6h-6V143.5z"/>
	<path class="st0" d="M165.6,131.5h18v-18h-18V131.5z M171.6,119.5h6v6h-6V119.5z"/>
	<path class="st0" d="M141.6,131.5h18v-18h-18V131.5z M147.6,119.5h6v6h-6V119.5z"/>
	<path class="st0" d="M117.6,131.5h18v-18h-18V131.5z M123.6,119.5h6v6h-6V119.5z"/>
	<path class="st0" d="M129.6,41.6h42v6h-42V41.6z"/>
	<path class="st0" d="M123.6,53.6h48v6h-48V53.6z"/>
</g>
</svg>
