<?xml version="1.0" encoding="utf-8"?>
<!-- Generator: Adobe Illustrator 21.1.0, SVG Export Plug-In . SVG Version: 6.00 Build 0)  -->
<svg version="1.1" id="Capa_1" xmlns="http://www.w3.org/2000/svg" xmlns:xlink="http://www.w3.org/1999/xlink" x="0px" y="0px"
	 viewBox="0 0 200 200" style="enable-background:new 0 0 200 200;" xml:space="preserve">
<style type="text/css">
	.st0{fill:#FF9233;}
</style>
<g>
	<path class="st0" d="M163.3,159.4c4.9,22.6-19.6,27.5-30.4,24.6s-32.9-3.4-32.9-3.4S77.9,181,67.1,184c-10.8,3-35.4-2-30.5-24.6
		s26.5-21.6,32.5-52.1c5.9-30.5,31-28.5,31-28.5s25-2,30.9,28.5C136.8,137.8,158.4,136.8,163.3,159.4z M122.7,76.8
		c13.3,3.8,28-6.7,32.8-23.5c4.8-16.8-2-33.5-15.3-37.3c-13.3-3.8-28,6.7-32.8,23.5C102.6,56.3,109.4,73,122.7,76.8z M177.9,70.7
		c-12.8-5.2-28.5,3.6-35.1,19.8c-6.6,16.2-1.6,33.5,11.2,38.7c12.8,5.2,28.5-3.6,35.1-19.8S190.7,76,177.9,70.7z M77.3,76.8
		C90.6,73,97.4,56.3,92.6,39.5C87.7,22.7,73,12.2,59.7,16.1c-13.3,3.8-20.1,20.6-15.3,37.3C49.3,70.2,64,80.7,77.3,76.8z
		 M46.1,129.3c12.8-5.2,17.8-22.6,11.2-38.7S35,65.5,22.1,70.7C9.3,76,4.3,93.3,10.9,109.5C17.5,125.7,33.2,134.5,46.1,129.3z"/>
</g>
</svg>
