<?xml version="1.0" encoding="utf-8"?>
<!-- Generator: Adobe Illustrator 21.1.0, SVG Export Plug-In . SVG Version: 6.00 Build 0)  -->
<svg version="1.1" id="Layer_1" xmlns="http://www.w3.org/2000/svg" xmlns:xlink="http://www.w3.org/1999/xlink" x="0px" y="0px"
	 viewBox="0 0 180.2 177.4" style="enable-background:new 0 0 180.2 177.4;" xml:space="preserve">
<style type="text/css">
	.st0{fill:#6B82FC;}
	.st1{fill:#17AFDC;}
	.st2{fill:#FCB338;}
	.st3{fill:#5358A1;}
	.st4{fill:#F4393D;}
	.st5{fill:#F7EDD3;}
	.st6{fill:#FCCC38;}
</style>
<g>
	<path class="st0" d="M150.7,60.1c0,15.2-6.1,36-16.2,53.8c-6.1,10.7-19.3,24.5-19.3,36.8H88.6V3C122.9,3,150.7,27.7,150.7,60.1z"/>
	<path class="st1" d="M88.6,53.2h26.6v35.5H88.6V53.2z"/>
	<path class="st2" d="M26.6,60.1c0,15.2,6.1,36,16.2,53.8c6.1,10.7,19.3,24.5,19.3,36.8h26.6V3C54.4,3,26.6,27.7,26.6,60.1z"/>
	<path class="st3" d="M113,162.5H64.3c-3.3,0-5.9-2.6-5.9-5.9v-0.2c0-3.1,2.6-5.5,5.6-5.5c0.1,0,0.2,0,0.3,0H113
		c3.1-0.2,5.7,2.1,5.9,5.2c0,0.1,0,0.2,0,0.3v0.2C118.9,159.9,116.3,162.5,113,162.5z"/>
	<path class="st3" d="M63.5,162.5h50.2c3.3,0,5.9,2.6,5.9,5.9v0.2c0,3.3-2.6,5.9-5.9,5.9H63.5c-3.3,0-5.9-2.6-5.9-5.9v-0.2
		C57.6,165.2,60.3,162.5,63.5,162.5z"/>
	<path class="st4" d="M83.6,29.9l-1.3,6.2c-1.9,0.3-3.8,0.9-5.6,1.5l-4.2-4.7c-3.1,1.3-6,3-8.7,5.1l2,6c-1.5,1.3-2.9,2.6-4.1,4.1
		l-6-2c-2,2.7-3.7,5.6-5.1,8.7l4.7,4.2c-0.7,1.8-1.2,3.7-1.5,5.6l-6.2,1.3c-0.4,3.3-0.4,6.7,0,10.1l6.2,1.3c0.3,1.9,0.9,3.8,1.5,5.6
		l-4.7,4.2c1.3,3.1,3,6,5.1,8.7l6-2c1.3,1.5,2.6,2.9,4.1,4.1l-2,6c2.7,2,5.6,3.7,8.7,5.1l4.2-4.7c1.8,0.7,3.7,1.2,5.6,1.5l1.3,6.2
		c1.7,0.2,3.4,0.3,5,0.3V29.5C87,29.6,85.3,29.7,83.6,29.9z"/>
	<path class="st5" d="M88.6,94.6C75.6,94.6,65,84,65,70.9s10.6-23.6,23.6-23.6"/>
	<circle class="st6" cx="106.4" cy="26.6" r="5.9"/>
	<circle class="st6" cx="130" cy="41.4" r="5.9"/>
	<circle class="st6" cx="144.8" cy="79.8" r="5.9"/>
	<circle class="st6" cx="112.3" cy="115.2" r="5.9"/>
	<path d="M119.9,143.1l-5.5-2.2c0.8-2,1.7-3.9,2.8-5.8l5.2,2.9C121.4,139.7,120.6,141.4,119.9,143.1L119.9,143.1z"/>
	<path d="M125.3,133.1l-5-3.2c1.1-1.7,2.3-3.4,3.4-5.1l4.9,3.4C127.5,129.8,126.4,131.4,125.3,133.1L125.3,133.1z"/>
	<path d="M132.1,123.2l-4.9-3.4c1.2-1.7,2.3-3.3,3.3-4.9l5,3.1C134.5,119.7,133.3,121.4,132.1,123.2z"/>
	<path d="M138.6,112.7l-5.2-2.8c0.9-1.7,1.8-3.5,2.7-5.3l5.3,2.5C140.5,109,139.6,110.9,138.6,112.7z"/>
	<path d="M143.9,101.6l-5.4-2.3c0.8-1.8,1.5-3.6,2.2-5.5l5.5,2.1C145.5,97.8,144.7,99.7,143.9,101.6z"/>
	<path d="M153.4,65.9l-5.9-0.5c0.2-1.8,0.2-3.6,0.2-5.2v-0.5h5.9v0.6C153.7,62,153.6,63.9,153.4,65.9z"/>
	<path d="M147.4,54c-0.2-1.9-0.6-3.8-1-5.6l5.8-1.3c0.5,2.1,0.8,4.1,1.1,6.2L147.4,54z"/>
	<path d="M144.8,42.9c-0.6-1.8-1.4-3.5-2.2-5.2l5.3-2.6c0.9,1.9,1.7,3.9,2.5,5.9L144.8,42.9z"/>
	<path d="M139.8,32.7c-1-1.6-2.1-3.2-3.3-4.6l4.6-3.7c1.3,1.7,2.5,3.4,3.7,5.2L139.8,32.7z"/>
	<path d="M132.7,23.8c-1.3-1.4-2.7-2.6-4.2-3.9l3.8-4.6c1.6,1.3,3.2,2.8,4.7,4.3L132.7,23.8z"/>
	<path d="M123.9,16.5c-1.6-1.1-3.2-2.1-4.9-3l2.8-5.2c1.9,1,3.7,2.1,5.4,3.3L123.9,16.5z"/>
	<path d="M113.8,11c-1.7-0.7-3.5-1.4-5.4-2l1.8-5.6c2,0.6,4,1.4,5.9,2.2L113.8,11z"/>
	<path d="M102.9,7.6c-1.9-0.4-3.8-0.7-5.7-1L98,0.7c2.1,0.3,4.2,0.6,6.2,1.1L102.9,7.6z"/>
	<path d="M144.8,70.9c-3.7,0-7.1,2.4-8.3,5.9h-18.3V65H130c1.6,0,3-1.3,3-3l0,0V49.7c4.6-1.6,7-6.7,5.4-11.3s-6.7-7-11.3-5.4
		c-4.6,1.6-7,6.7-5.4,11.3c0.9,2.5,2.9,4.5,5.4,5.4v9.4h-8.9v-5.9c0-1.6-1.3-3-3-3l0,0h-5.9V34.9c4.6-1.6,7-6.7,5.4-11.3
		s-6.7-7-11.3-5.4c-4.6,1.6-7,6.7-5.4,11.3c0.9,2.5,2.9,4.5,5.4,5.4v15.3H91.6V3.1c0-1.6-1.3-3-3-3l0,0c-36.5,0-65,26.4-65,60.1
		c0,16,6.4,37.2,16.6,55.3c1.8,3.2,4.2,6.7,6.8,10.3c5.4,7.6,11.3,16.2,12,23.7c-2.3,1.6-3.6,4.2-3.5,7c0,2,0.7,3.9,2,5.5
		c-1.7,1.7-2.7,4.1-2.7,6.5c0,4.9,4,8.9,8.9,8.9h50.2c4.9,0,8.9-4,8.9-9v-0.1c0-2.4-1-4.7-2.7-6.4c1.3-1.6,2-3.6,2-5.7
		c0-4.7-3.8-8.5-8.5-8.5c-0.1,0-0.2,0-0.4,0H91.6V91.6h5.9v8.9c0,1.6,1.3,3,3,3l0,0h8.9v3.5c-4.6,1.6-7,6.7-5.4,11.3
		c1.6,4.6,6.7,7,11.3,5.4c4.6-1.6,7-6.7,5.4-11.3c-0.9-2.5-2.9-4.5-5.4-5.4v-6.5c0-1.6-1.3-3-3-3l0,0h-8.9v-5.9h11.8
		c1.6,0,3-1.3,3-3l0,0v-5.9h18.3c1.6,4.6,6.7,7,11.3,5.4s7-6.7,5.4-11.3C151.9,73.3,148.5,70.9,144.8,70.9z M130,38.4
		c1.6,0,3,1.3,3,3c0,1.6-1.3,3-3,3s-3-1.3-3-3C127.1,39.7,128.4,38.4,130,38.4z M51.8,122.4c-2.5-3.5-4.8-6.8-6.5-9.8
		c-9.6-17-15.8-37.6-15.8-52.4C29.5,30.7,54,7.4,85.7,6.1v20.6c-0.8,0.1-1.6,0.1-2.4,0.2C82,27.1,81,28,80.7,29.3l-0.9,4.3
		c-0.7,0.2-1.5,0.4-2.2,0.6l-2.9-3.3c-0.8-0.9-2.2-1.2-3.4-0.7c-3.3,1.4-6.4,3.2-9.3,5.4c-1,0.8-1.4,2.1-1,3.3l1.4,4.1
		c-0.6,0.5-1.1,1.1-1.6,1.6l-4.1-1.4c-1.2-0.4-2.5,0-3.3,1c-2.2,2.9-4,6-5.4,9.3c-0.5,1.2-0.2,2.5,0.7,3.4l3.3,2.9
		c-0.2,0.7-0.4,1.5-0.6,2.2l-4.7,1c-1.4,0.3-2.4,1.5-2.4,2.9V76c0,1.4,1,2.6,2.4,2.9l4.6,0.9c0.2,0.7,0.4,1.5,0.6,2.2l-3.3,2.9
		c-0.9,0.8-1.2,2.2-0.7,3.4c1.4,3.3,3.3,6.4,5.4,9.3c0.8,1,2.1,1.4,3.3,1l4.1-1.4c0.5,0.6,1.1,1.1,1.6,1.6L61,103
		c-0.4,1.2,0,2.5,1,3.3c2.9,2.2,6,4,9.3,5.4c1.2,0.5,2.5,0.2,3.4-0.7l2.9-3.3c0.7,0.2,1.5,0.4,2.2,0.6l0.9,4.3
		c0.3,1.2,1.3,2.2,2.5,2.3c0.9,0.1,1.7,0.2,2.4,0.2v32.7H64.8C63.5,139.1,57.4,130.3,51.8,122.4L51.8,122.4z M62.1,70.9
		c0,13.5,10.2,24.9,23.6,26.4v10.2l-0.5-2.3c-0.2-1.2-1.2-2.1-2.4-2.3c-1.8-0.3-3.5-0.8-5.1-1.4c-0.3-0.1-0.7-0.2-1-0.2
		c-0.8,0-1.6,0.4-2.2,1l-2.8,3.1c-1.5-0.8-3-1.6-4.4-2.6l1.3-3.9c0.4-1.1,0-2.4-0.9-3.2c-1.4-1.2-2.6-2.4-3.8-3.8
		c-0.8-0.9-2-1.3-3.2-0.9l-3.9,1.3c-1-1.4-1.8-2.9-2.6-4.4l3.1-2.8c0.9-0.8,1.2-2.1,0.8-3.2c-0.6-1.7-1.1-3.4-1.4-5.1
		c-0.2-1.2-1.1-2.1-2.3-2.4l-4.1-0.8v-5.2l4.1-0.8c1.2-0.2,2.1-1.2,2.3-2.4c0.3-1.8,0.8-3.5,1.4-5.2c0.4-1.1,0.1-2.4-0.8-3.2
		L54.2,54c0.8-1.5,1.6-3,2.6-4.4l3.9,1.3c1.1,0.4,2.4,0,3.2-0.9c1.2-1.4,2.4-2.6,3.8-3.8c0.9-0.8,1.3-2,0.9-3.2l-1.3-3.9
		c1.4-1,2.9-1.8,4.4-2.6l2.8,3.1c0.8,0.9,2.1,1.2,3.2,0.8c1.7-0.6,3.4-1.1,5.1-1.4c1.2-0.2,2.1-1.1,2.4-2.3l0.5-2.3v10.2
		C72.2,46,62.1,57.4,62.1,70.9L62.1,70.9z M85.7,50.5v40.9C74.4,89.7,66.6,79.3,68.2,68C69.5,58.9,76.6,51.8,85.7,50.5z
		 M113.8,171.5H63.5c-1.7,0-3-1.4-3-3.1v-0.1c0-1.6,1.3-3,3-3h50.2c1.7,0,3,1.4,3,3.1v0.1C116.7,170.2,115.4,171.5,113.8,171.5z
		 M113,153.8c1.5-0.1,2.8,1,2.9,2.4c0,0.1,0,0.2,0,0.3c0,1.6-1.3,3-3,3H64.3c-1.7,0-3-1.4-3-3.1v-0.1c0.1-1.5,1.3-2.6,2.8-2.6
		c0.1,0,0.1,0,0.2,0H113V153.8z M112.3,112.3c1.6,0,3,1.3,3,3s-1.3,3-3,3s-3-1.3-3-3C109.3,113.6,110.7,112.3,112.3,112.3z
		 M106.4,23.6c1.6,0,3,1.3,3,3s-1.3,3-3,3s-3-1.3-3-3C103.4,25,104.7,23.6,106.4,23.6z M112.3,85.7H91.6V56.1h20.7V85.7z
		 M144.8,82.7c-1.6,0-3-1.3-3-3s1.3-3,3-3s3,1.3,3,3C147.7,81.4,146.4,82.7,144.8,82.7z"/>
</g>
</svg>
