<?xml version="1.0" encoding="utf-8"?>
<!-- Generator: Adobe Illustrator 21.1.0, SVG Export Plug-In . SVG Version: 6.00 Build 0)  -->
<svg version="1.1" id="Capa_1" xmlns="http://www.w3.org/2000/svg" xmlns:xlink="http://www.w3.org/1999/xlink" x="0px" y="0px"
	 viewBox="0 0 200 200" style="enable-background:new 0 0 200 200;" xml:space="preserve">
<style type="text/css">
	.st0{fill:#FFCF1A;}
</style>
<g>
	<g id="_x33_6_24_">
		<g>
			<path class="st0" d="M64.6,54.4h56c1.5,0,2.7-1.2,2.7-2.7c0-1.5-1.2-2.7-2.7-2.7h-56c-1.5,0-2.7,1.2-2.7,2.7
				C61.9,53.2,63.1,54.4,64.6,54.4z"/>
			<path class="st0" d="M14.5,80.4h56c1.5,0,2.7-1.2,2.7-2.7c0-1.5-1.2-2.7-2.7-2.7h-56c-1.5,0-2.7,1.2-2.7,2.7
				C11.9,79.3,13,80.4,14.5,80.4z"/>
			<path class="st0" d="M29.5,107.8c0,1.5,1.2,2.7,2.7,2.7h56c1.5,0,2.7-1.2,2.7-2.7c0-1.5-1.2-2.7-2.7-2.7h-56
				C30.7,105.2,29.5,106.4,29.5,107.8z"/>
			<path class="st0" d="M61.6,138.8H11.3c-1.5,0-2.7,1.2-2.7,2.7s1.2,2.7,2.7,2.7h50.3c1.5,0,2.7-1.2,2.7-2.7S63,138.8,61.6,138.8z"
				/>
			<path class="st0" d="M152,71.1c8,0,14.5-6.5,14.5-14.5S160.1,42,152,42c-8,0-14.5,6.5-14.5,14.5C137.5,64.6,144,71.1,152,71.1z"
				/>
			<path class="st0" d="M176,66.9c-8.4,11.7-19.5,13.1-31.6,5.9c-0.8-0.5-4.5-2.5-5.3-3c-19.4-11.5-38.7-7-51.7,11.2
				c-5.5,7.7,7.2,15,12.7,7.4c6.7-9.4,15.2-12.1,24.5-9.1c-4.8,8.3-8.9,16.5-14.8,28.2c-5.9,11.7-18.9,21-31.4,13.7
				c-9-5.3-17.1,7.7-8.2,12.9c17,10,37,3.8,47.2-9.1c0.4,0.2,0.7,0.4,1.1,0.5c8.3,2.9,19.3,10.6,22.6,13.4c3.3,2.7,9,16.7,12.4,23.7
				c4.1,8.5,17.4,2.3,13.3-6.2c-3.9-8-10.3-23.8-15.4-27.9c-4-3.2-11.9-9.2-18.6-12.6c4.5-8.7,9.2-17.4,14.1-25.8
				c15.7,4.8,30.7-0.9,41.4-15.8C194.2,66.6,181.4,59.3,176,66.9z"/>
		</g>
	</g>
</g>
</svg>
